<svg width="30" height="30" viewBox="0 0 30 30" fill="none" xmlns="http://www.w3.org/2000/svg">
<path d="M5.66683 0.333374H1.66683C1.31321 0.333374 0.974068 0.473849 0.724019 0.723897C0.473971 0.973946 0.333496 1.31309 0.333496 1.66671V28.3334C0.333496 28.687 0.473971 29.0261 0.724019 29.2762C0.974068 29.5262 1.31321 29.6667 1.66683 29.6667H5.66683V0.333374Z" fill="#C4B5FD"/>
<path d="M8.3335 29.6667H21.6668V0.333374H8.3335V29.6667ZM15.0002 24.3334C14.6465 24.3334 14.3074 24.1929 14.0574 23.9429C13.8073 23.6928 13.6668 23.3537 13.6668 23C13.6668 22.6464 13.8073 22.3073 14.0574 22.0572C14.3074 21.8072 14.6465 21.6667 15.0002 21.6667C15.3538 21.6667 15.6929 21.8072 15.943 22.0572C16.193 22.3073 16.3335 22.6464 16.3335 23C16.3335 23.3537 16.193 23.6928 15.943 23.9429C15.6929 24.1929 15.3538 24.3334 15.0002 24.3334ZM15.0002 5.66671C15.3538 5.66671 15.6929 5.80718 15.943 6.05723C16.193 6.30728 16.3335 6.64642 16.3335 7.00004C16.3335 7.35366 16.193 7.6928 15.943 7.94285C15.6929 8.1929 15.3538 8.33337 15.0002 8.33337C14.6465 8.33337 14.3074 8.1929 14.0574 7.94285C13.8073 7.6928 13.6668 7.35366 13.6668 7.00004C13.6668 6.64642 13.8073 6.30728 14.0574 6.05723C14.3074 5.80718 14.6465 5.66671 15.0002 5.66671ZM15.0002 13.6667C15.3538 13.6667 15.6929 13.8072 15.943 14.0572C16.193 14.3073 16.3335 14.6464 16.3335 15C16.3335 15.3537 16.193 15.6928 15.943 15.9429C15.6929 16.1929 15.3538 16.3334 15.0002 16.3334C14.6465 16.3334 14.3074 16.1929 14.0574 15.9429C13.8073 15.6928 13.6668 15.3537 13.6668 15C13.6668 14.6464 13.8073 14.3073 14.0574 14.0572C14.3074 13.8072 14.6465 13.6667 15.0002 13.6667Z" fill="#7C3AED"/>
<path d="M28.3335 0.333374H24.3335V29.6667H28.3335C28.6871 29.6667 29.0263 29.5262 29.2763 29.2762C29.5264 29.0261 29.6668 28.687 29.6668 28.3334V1.66671C29.6668 1.31309 29.5264 0.973946 29.2763 0.723897C29.0263 0.473849 28.6871 0.333374 28.3335 0.333374Z" fill="#1DB5BE"/>
</svg>
