<svg xmlns="http://www.w3.org/2000/svg" width="28" height="32" fill="none" viewBox="0 0 28 32"><path fill="#C4B5FD" d="M26.0001 32H14.0001C13.6465 32 13.3073 31.8595 13.0573 31.6094C12.8072 31.3594 12.6667 31.0202 12.6667 30.6666V28C12.6667 27.6463 12.8072 27.3072 13.0573 27.0571C13.3073 26.8071 13.6465 26.6666 14.0001 26.6666H26.0001C26.3537 26.6666 26.6928 26.8071 26.9429 27.0571C27.1929 27.3072 27.3334 27.6463 27.3334 28V30.6666C27.3334 31.0202 27.1929 31.3594 26.9429 31.6094C26.6928 31.8595 26.3537 32 26.0001 32Z"/><path fill="#1DB5BE" d="M26.0001 0H2.00008C1.64646 0 1.30732 0.140475 1.05727 0.390523C0.807223 0.640572 0.666748 0.979711 0.666748 1.33333V4C0.666748 4.35362 0.807223 4.69276 1.05727 4.94281C1.30732 5.19286 1.64646 5.33333 2.00008 5.33333H26.0001C26.3537 5.33333 26.6928 5.19286 26.9429 4.94281C27.1929 4.69276 27.3334 4.35362 27.3334 4V1.33333C27.3334 0.979711 27.1929 0.640572 26.9429 0.390523C26.6928 0.140475 26.3537 0 26.0001 0Z"/><path fill="#7C3AED" d="M26.0001 8H2.00008C1.64646 8 1.30732 8.14047 1.05727 8.39052C0.807223 8.64057 0.666748 8.97971 0.666748 9.33333V22.6667C0.666748 23.0203 0.807223 23.3594 1.05727 23.6095C1.30732 23.8595 1.64646 24 2.00008 24H26.0001C26.3537 24 26.6928 23.8595 26.9429 23.6095C27.1929 23.3594 27.3334 23.0203 27.3334 22.6667V9.33333C27.3334 8.97971 27.1929 8.64057 26.9429 8.39052C26.6928 8.14047 26.3537 8 26.0001 8Z"/></svg>