<svg xmlns="http://www.w3.org/2000/svg" width="30" height="30" fill="none" viewBox="0 0 30 30"><path fill="#1DB5BE" d="M29.6668 7.00004V1.66671C29.6668 1.31309 29.5264 0.973946 29.2763 0.723897C29.0263 0.473849 28.6871 0.333374 28.3335 0.333374H1.66683C1.31321 0.333374 0.974068 0.473849 0.724019 0.723897C0.473971 0.973946 0.333496 1.31309 0.333496 1.66671V7.00004H29.6668Z"/><path fill="#C4B5FD" d="M0.333496 9.66675V28.3334C0.333496 28.687 0.473971 29.0262 0.724019 29.2762C0.974068 29.5263 1.31321 29.6667 1.66683 29.6667H8.3335V9.66675H0.333496Z"/><path fill="#7C3AED" d="M11 29.6667H28.3333C28.687 29.6667 29.0261 29.5263 29.2761 29.2762C29.5262 29.0262 29.6667 28.687 29.6667 28.3334V9.66675H11V29.6667Z"/></svg>