<svg width="34" height="28" viewBox="0 0 34 28" fill="none" xmlns="http://www.w3.org/2000/svg">
<path d="M0.482422 14.3086C0.482422 13.8691 0.675781 13.4648 1.02734 13.1309L12.6641 1.51172C13.0508 1.125 13.4199 0.984375 13.8418 0.984375C14.7031 0.984375 15.3887 1.61719 15.3887 2.49609C15.3887 2.91797 15.2305 3.32227 14.9492 3.60352L11.0117 7.61133L5.10547 13.0078L9.3418 12.7441H31.5781C32.4922 12.7441 33.125 13.3945 33.125 14.3086C33.125 15.2227 32.4922 15.873 31.5781 15.873H9.3418L5.08789 15.6094L11.0117 21.0059L14.9492 25.0137C15.2305 25.2773 15.3887 25.6992 15.3887 26.1211C15.3887 27 14.7031 27.6328 13.8418 27.6328C13.4199 27.6328 13.0508 27.4746 12.6992 27.1406L1.02734 15.4863C0.675781 15.1523 0.482422 14.748 0.482422 14.3086Z" fill="black"/>
</svg>
