<svg viewBox="0 0 34 28" fill="none" xmlns="http://www.w3.org/2000/svg">
<path d="M33.5176 14.3086C33.5176 13.8691 33.3242 13.4648 32.9727 13.1309L21.3359 1.51172C20.9492 1.125 20.5801 0.984375 20.1582 0.984375C19.2969 0.984375 18.6113 1.61719 18.6113 2.49609C18.6113 2.91797 18.7695 3.32227 19.0508 3.60352L22.9883 7.61133L28.8945 13.0078L24.6582 12.7441H2.42188C1.50781 12.7441 0.875 13.3945 0.875 14.3086C0.875 15.2227 1.50781 15.873 2.42188 15.873H24.6582L28.9121 15.6094L22.9883 21.0059L19.0508 25.0137C18.7695 25.2773 18.6113 25.6992 18.6113 26.1211C18.6113 27 19.2969 27.6328 20.1582 27.6328C20.5801 27.6328 20.9492 27.4746 21.3008 27.1406L32.9727 15.4863C33.3242 15.1523 33.5176 14.748 33.5176 14.3086Z" fill="black"/>
</svg>
